<?xml version="1.0" encoding="UTF-8"?>
<svg id="Layer_1" data-name="Layer 1" xmlns="http://www.w3.org/2000/svg" viewBox="0 0 77.87 61.41">
  <defs>
    <style>
      .cls-1 {
        fill: #fcf03d;
      }

      .cls-2 {
        fill: #fcee21;
      }

      .cls-3 {
        fill: #1c3176;
      }
    </style>
  </defs>
  <g>
    <path class="cls-3" d="M10.41,61.34c-1.47,.35-2.47-.63-2.6-1.17-.06-.25,.14-.43,.3-.46,.08-.02,.15,0,.16,.06,.04,.17,.73,.58,1.49,.56-.22-.07-.4-.19-.4-.4,0-.84,0-3.87-.02-4.88,0-.23-.08-.29-.12-.38-.79,.58-1.09,1.41-1.04,1.6,.01,.05-.03,.09-.1,.11-.17,.04-.49-.05-.58-.45-.19-.79,.56-2.32,2.19-2.7,4.8-1.13,4.78,7.16,.75,8.11Zm-.12-7.15c-.24,.06-.47,.14-.66,.24,.34,.07,.78,.3,.78,.57,0,.29,.02,4.16,.02,4.88,0,.16,.02,.25,.04,.32,2.97-1.07,2.76-6.71-.18-6.01Z"/>
    <path class="cls-3" d="M18.47,56.13c.06,.24-.74,2.67-1.22,2.78-.4,.09-1.12-.44-1.12-.86t0-.02v-.03c-.22,.68-.49,1.28-.72,1.34-.39,.09-1.52-.37-1.52-1.42,0-1.32,.28-3.1,1.16-3.31,.46-.11,.83,.07,1.08,.38,0-.06,0-.11,0-.13,0-.27,.41-.49,.75-.57,.13-.03,.25-.04,.33-.02,.12,.03,.15,.12,.14,.18,0,.14-.15,.15-.14,.46,0,.09,0,2.33,.02,2.81,0,.18,0,.28,.06,.27,.19-.05,.58-1.19,.75-1.73,.06-.17,0-.26,.09-.28,.12-.03,.32,0,.35,.14Zm-2.91-.95c-.56,.13-.77,3.4-.19,3.26,.68-.16,.73-3.39,.19-3.26Z"/>
    <path class="cls-3" d="M19.46,55.33c.34-.43,.16-.96-.05-.91-.34,.08-.44,1.01-.43,1.34,.02,.51,1.55,0,1.56,1.3,.01,.83-1.14,1.34-1.74,1.48-.67,.16-.94-.63-.74-.67,.36-.08,1.67-.48,1.53-1.15-.09-.45-1.46,.1-1.69-.89-.1-.43,.16-1.95,.81-2.1,.61-.14,1.41,.04,1.49,.39,.09,.39,.17,1.35-.29,1.46-.25,.06-.54-.14-.46-.23Z"/>
    <path class="cls-3" d="M25.41,54.5c.06,.24-.73,2.67-1.21,2.78-.4,.09-1.12-.44-1.12-.86,0-.17,0-.4,0-.63v-1.49c0-.23,0-.45,0-.63,0-.16-.02-.24-.07-.23-.21,.05-.99,2.6-.98,3.85,0,.26,.06,.34,.05,.42,0,.05-.02,.08-.05,.09-.27,.06-1.07-.01-1.08-.46,0-.84,0-3.88-.02-4.88,0-.3-.14-.33-.14-.45,0-.06,.02-.16,.14-.19,.29-.07,1.08,.22,1.09,.59,0,.29,0,2.25,0,2.72,.26-1.15,.55-2.27,.74-2.31,.31-.07,1.4,.29,1.41,.63,0,.74,0,1.96,0,2.65,0,.17,.01,.28,.07,.27,.19-.04,.58-1.19,.76-1.73,.06-.17-.01-.25,.09-.28,.12-.03,.31,0,.34,.14Z"/>
    <path class="cls-3" d="M27.33,54.05c.06,.24-.73,2.67-1.21,2.78-.4,.09-1.12-.44-1.12-.86,0-.35,0-2.7,0-2.7v-.24c0-.3-.15-.32-.15-.45,0-.05,.02-.15,.15-.18,.29-.07,1.07,.22,1.08,.59,0,0,0,2.26,0,2.66,0,.17,.01,.28,.07,.27,.18-.04,.58-1.19,.75-1.73,.06-.17-.01-.25,.09-.28,.12-.03,.31,0,.34,.14Zm-2.26-2.45l-.17-.81c-.03-.15,.07-.31,.22-.35l.65-.15c.17-.04,.32,.09,.3,.27l-.08,.88c0,.12-.1,.23-.23,.26l-.39,.09c-.14,.03-.27-.05-.3-.19Z"/>
    <path class="cls-3" d="M31.36,53.1c.06,.24-.73,2.67-1.21,2.78-.4,.09-1.12-.44-1.12-.86,0-.18,0-.4,0-.63v-1.49c0-.23,0-.45,0-.63,0-.16-.02-.24-.07-.23-.21,.05-.99,2.6-.98,3.85,0,.26,.06,.34,.05,.42,0,.04-.02,.08-.05,.09-.27,.06-1.07-.01-1.08-.46,0-.84,0-2.34-.01-3.35,0-.3-.15-.32-.15-.45,0-.06,.03-.15,.15-.18,.29-.07,1.07,.22,1.08,.58,0,.29,0,.72,0,1.19,.26-1.15,.55-2.27,.74-2.31,.31-.07,1.4,.29,1.41,.63,0,.74,0,1.96,0,2.65,0,.17,.01,.28,.07,.27,.19-.04,.58-1.19,.76-1.73,.06-.17-.01-.25,.09-.28,.12-.03,.31,0,.34,.14Z"/>
    <path class="cls-3" d="M34.28,50.47c0,.14-.15,.15-.14,.46,0,0,.02,3.88,.02,5.48,.01,.55-.74,1.38-1.08,1.46-.53,.12-1.66-1.15-1.76-1.55-.02-.11,.14-.42,.28-.45,.04,0,.02,.05,.07,.13,.18,.33,.67,1.07,.95,1,.5-.12,.46-1.33,.46-1.81,0-.26,0-.58,0-.92-.2,.56-.42,1.02-.63,1.07-.39,.09-1.51-.37-1.51-1.42,0-1.32,.28-3.1,1.16-3.31,.4-.09,.74,.04,.98,.28,0-.27,.42-.5,.75-.57,.12-.03,.24-.04,.32-.02,.12,.03,.15,.12,.15,.18Zm-1.69,.7c-.57,.13-.77,3.4-.19,3.26,.68-.16,.72-3.39,.19-3.26Z"/>
    <path class="cls-3" d="M37.66,54.92c-1.47,.34-2.47-.63-2.6-1.17-.06-.25,.14-.43,.3-.46,.08-.02,.15,0,.16,.06,.04,.17,.73,.58,1.49,.56-.22-.07-.4-.19-.4-.4,0-.84,0-3.87-.02-4.88,0-.23-.08-.29-.12-.38-.79,.58-1.09,1.41-1.04,1.6,.01,.05-.03,.09-.1,.11-.17,.04-.49-.05-.58-.45-.19-.79,.56-2.32,2.19-2.7,4.8-1.13,4.78,7.16,.75,8.11Zm-.12-7.15c-.24,.06-.47,.14-.66,.24,.34,.07,.78,.3,.78,.57,0,.29,.02,4.16,.02,4.88,0,.16,.02,.25,.04,.32,2.97-1.07,2.76-6.71-.18-6.01Z"/>
    <path class="cls-3" d="M43.5,50.24c.06,.24-.73,2.67-1.21,2.78-.4,.09-1.12-.44-1.12-.86,0-.35,0-2.7,0-2.7v-.24c0-.3-.15-.32-.15-.45,0-.05,.02-.15,.15-.18,.29-.07,1.07,.22,1.08,.58,0,0,0,2.26,0,2.66,0,.17,.01,.28,.07,.27,.18-.04,.58-1.19,.75-1.73,.06-.17-.01-.25,.09-.28,.12-.03,.31,0,.34,.14Zm-2.26-2.45l-.17-.81c-.03-.15,.07-.31,.22-.35l.65-.15c.17-.04,.32,.09,.3,.27l-.08,.88c0,.12-.1,.23-.23,.26l-.39,.09c-.14,.03-.27-.05-.3-.19Z"/>
    <path class="cls-3" d="M49.7,48.78c.06,.24-.73,2.67-1.21,2.78-.4,.09-1.13-.44-1.12-.86,0-.17,0-.4,0-.63v-1.49c0-.23,0-.45,0-.63,0-.16-.03-.24-.07-.23-.21,.05-.99,2.6-.98,3.85,0,.26,.05,.34,.05,.42,0,.05-.02,.08-.05,.09-.27,.06-1.07-.01-1.08-.46,0-.21-.02-2.54-.01-3.16,0-.16-.02-.24-.07-.23-.21,.05-.99,2.6-.98,3.84,0,.26,.06,.34,.05,.42,0,.05-.02,.08-.05,.09-.27,.06-1.07-.01-1.08-.46,0-.84,0-2.34-.02-3.35,0-.3-.15-.32-.15-.45,0-.06,.03-.15,.15-.18,.29-.07,1.07,.22,1.08,.58,0,.29,0,.72,0,1.19,.25-1.15,.55-2.27,.74-2.31,.31-.07,1.4,.29,1.41,.63,0,.32,0,.75,0,1.18,.25-1.16,.54-2.27,.74-2.31,.31-.07,1.4,.29,1.41,.63,0,.74,0,1.96,0,2.65,0,.17,.01,.28,.06,.27,.19-.04,.59-1.19,.76-1.73,.05-.17-.01-.25,.09-.28,.12-.03,.31,0,.34,.14Z"/>
    <path class="cls-3" d="M52.81,48.01c.08,.33-1.16,2.81-2.04,3.01-.52,.12-1.55-.77-1.56-1.26,0-.94,.27-3.25,.98-3.42,.48-.11,1.51,.13,1.59,.46,.11,.48-.43,1.99-.92,2.11-.11,.03-.39,.06-.61,.05-.04,.68,.09,1.24,.58,1.13,.75-.18,1.31-1.47,1.59-2.02,.08-.15,.03-.22,.09-.23,.1-.02,.26,.05,.29,.17Zm-2.36,.6c.46-.11,.83-1.83,.48-1.74-.23,.05-.9,1.84-.48,1.74Z"/>
    <path class="cls-3" d="M53.79,47.25c.34-.43,.16-.96-.05-.91-.34,.08-.44,1.01-.43,1.34,.02,.51,1.55,0,1.56,1.3,0,.83-1.14,1.34-1.74,1.48-.67,.16-.94-.63-.74-.68,.36-.08,1.67-.48,1.53-1.15-.09-.45-1.46,.1-1.69-.89-.1-.43,.16-1.95,.81-2.1,.61-.14,1.41,.04,1.49,.39,.09,.39,.17,1.35-.29,1.46-.25,.06-.54-.14-.46-.23Z"/>
    <path class="cls-3" d="M58.2,50.09c-1.47,.34-2.47-.63-2.6-1.17-.06-.25,.14-.43,.3-.47,.08-.02,.15,0,.16,.06,.04,.17,.73,.58,1.49,.56-.22-.07-.4-.19-.4-.4,0-.84,0-3.87-.02-4.88,0-.23-.08-.29-.13-.38-.79,.58-1.09,1.41-1.04,1.6,.01,.05-.03,.09-.1,.11-.17,.04-.49-.05-.59-.45-.18-.79,.56-2.32,2.18-2.7,4.8-1.13,4.78,7.16,.75,8.11Zm-.12-7.15c-.24,.06-.46,.14-.66,.24,.34,.07,.78,.3,.78,.57,0,.29,.02,4.16,.02,4.88,0,.16,.02,.25,.04,.32,2.97-1.07,2.76-6.71-.18-6.01Z"/>
    <path class="cls-3" d="M65.25,45.09c.08,.33-1.16,2.81-2.04,3.01-.52,.12-1.55-.77-1.56-1.26,0-.94,.27-3.25,.98-3.42,.48-.11,1.52,.13,1.59,.46,.11,.48-.43,1.99-.92,2.11-.1,.03-.39,.06-.61,.05-.04,.68,.09,1.24,.58,1.13,.75-.18,1.31-1.47,1.59-2.02,.08-.15,.03-.22,.09-.23,.1-.02,.26,.05,.29,.17Zm-2.36,.6c.46-.11,.83-1.83,.48-1.74-.23,.05-.9,1.84-.48,1.74Z"/>
    <path class="cls-3" d="M66.24,44.32c.34-.43,.16-.96-.05-.91-.34,.08-.45,1.01-.43,1.34,.02,.51,1.55,0,1.56,1.3,0,.83-1.14,1.34-1.74,1.48-.67,.16-.94-.63-.74-.68,.36-.08,1.67-.48,1.53-1.15-.09-.45-1.46,.1-1.69-.89-.1-.43,.16-1.95,.81-2.1,.61-.14,1.41,.04,1.49,.39,.09,.39,.17,1.35-.29,1.46-.25,.06-.54-.14-.46-.23Z"/>
    <path class="cls-3" d="M70.05,43.99c.06,.24-.73,2.67-1.21,2.78-.4,.09-1.12-.44-1.12-.86,0-.35,0-2.7,0-2.7v-.24c0-.3-.15-.32-.15-.45,0-.05,.02-.15,.15-.18,.29-.07,1.08,.22,1.08,.58,0,0,0,2.26,0,2.66,0,.17,.01,.28,.07,.27,.18-.04,.58-1.19,.76-1.73,.06-.17-.01-.25,.09-.28,.12-.03,.31,0,.34,.14Zm-2.26-2.45l-.17-.81c-.03-.15,.07-.31,.22-.35l.65-.15c.17-.04,.32,.09,.3,.27l-.08,.88c0,.12-.1,.23-.23,.26l-.39,.09c-.14,.03-.27-.05-.3-.19Z"/>
    <path class="cls-3" d="M72.94,41.38c0,.14-.15,.15-.14,.46,0,0,.02,3.88,.02,5.48,0,.55-.74,1.38-1.08,1.46-.53,.12-1.66-1.15-1.76-1.55-.02-.11,.14-.42,.28-.45,.04,0,.02,.05,.07,.13,.18,.33,.67,1.07,.95,1,.5-.12,.46-1.33,.46-1.81,0-.26,0-.58,0-.92-.2,.56-.42,1.02-.63,1.07-.39,.09-1.51-.37-1.51-1.42,0-1.32,.28-3.1,1.16-3.31,.4-.09,.74,.04,.98,.28,0-.27,.42-.5,.75-.57,.12-.03,.24-.04,.32-.02,.13,.02,.15,.12,.15,.17Zm-1.69,.7c-.57,.13-.77,3.4-.19,3.26,.68-.16,.72-3.39,.19-3.26Z"/>
    <path class="cls-3" d="M77.86,42.15c.06,.24-.73,2.67-1.21,2.78-.4,.09-1.12-.44-1.12-.86,0-.17,0-.4,0-.63v-1.49c0-.23,0-.45,0-.63,0-.16-.02-.24-.07-.23-.21,.05-.99,2.6-.98,3.85,0,.26,.06,.34,.05,.42,0,.05-.02,.08-.05,.09-.27,.06-1.07-.01-1.08-.46,0-.84,0-2.34-.01-3.35,0-.3-.15-.32-.15-.45,0-.06,.03-.15,.15-.18,.29-.07,1.07,.22,1.08,.58,0,.29,0,.72,0,1.19,.25-1.15,.55-2.27,.74-2.31,.31-.07,1.4,.29,1.41,.63,0,.74,0,1.96,0,2.65,0,.17,.01,.28,.07,.27,.19-.04,.58-1.19,.76-1.73,.06-.17-.01-.25,.09-.28,.12-.03,.31,0,.34,.14Z"/>
  </g>
  <g>
    <line class="cls-2" x1="75.16" y1="31.18" x2=".16" y2="49.18"/>
    <g>
      <path class="cls-1" d="M0,48.53c-.02,.09,.05,.28,.15,.21v-.34s-.15,.13-.15,.13Z"/>
      <path class="cls-1" d="M.88,48.95c.09-.19,.17-.5,.02-.77-.05,.34-.11,.22-.16,.62-.1,.06-.21-.06-.22-.18-.02,.09-.19-.03-.2,.19,.2,.22,.38,.18,.52-.07,.06,.06,.04,.15,.04,.22Z"/>
      <path class="cls-1" d="M11.63,46.9l-.08-.02s.05,.02,.08,.02Z"/>
      <path class="cls-1" d="M18.27,45.5s-.06,.06-.06,.09c.04-.03,.08-.06,.06-.09Z"/>
      <path class="cls-1" d="M19.48,45.58s-.05,0-.07,0c.03,.02,.06,.03,.07,0Z"/>
      <path class="cls-1" d="M11.63,46.9l.2,.06c-.01-.11-.11-.06-.2-.06Z"/>
      <path class="cls-1" d="M2.16,47.83s-.06,.06-.08,.11c.03-.02,.05-.04,.08-.06,0-.02,0-.03,0-.05Z"/>
      <path class="cls-1" d="M8.79,47.86h-.05c0,.05-.01,.1-.01,.15l.07-.15Z"/>
      <path class="cls-1" d="M6.57,48.45c.05,0,0-.28,0-.4,0,.12-.03,.18-.07,.21,.01,.05,.03,.11,.07,.19Z"/>
      <path class="cls-1" d="M2.92,48.81l-.05,.05s.04-.03,.05-.05Z"/>
      <path class="cls-1" d="M10.4,47.54s.03,.07,.04,.09c0-.03-.02-.06-.04-.09Z"/>
      <path class="cls-1" d="M72.27,30.52s0,.03,.01,.05c0-.03,0-.05-.01-.05Z"/>
      <path class="cls-1" d="M75.18,31.25l-.03,.02c0,.05,.02,.1,.03,.16v-.18Z"/>
      <path class="cls-1" d="M21.62,45.44s0,0-.01,0c-.05,.04-.02,.03,.01,0Z"/>
      <path class="cls-1" d="M40.48,40.7c-.27-.19,.27-.4-.11-.59,.06,.1-.19,.5,.11,.59Z"/>
      <path class="cls-1" d="M2.23,47.85s.06-.02,.09-.02c-.04,0-.07,0-.09,.02Z"/>
      <path class="cls-1" d="M40.36,40.11s0,0,0,0l-.04-.02s.03,.01,.04,.02Z"/>
      <path class="cls-1" d="M26.33,44.14s-.05-.08-.08-.11c0,.03,.03,.06,.08,.11Z"/>
      <path class="cls-1" d="M22.7,44.59l.1,.02s-.07-.02-.1-.02Z"/>
      <path class="cls-1" d="M28.07,43.31c.05,0,.08,.04,.13,0,0-.01-.02-.02-.03-.03-.01,.04-.04,.07-.11,.04Z"/>
      <path class="cls-1" d="M29.98,42.85s-.03-.03-.05-.05c-.02,0-.04,.02-.06,.03l.11,.02Z"/>
      <path class="cls-1" d="M66.49,32.04c.06,.07,.11,.15,.15,.22-.08-.19,.19-.32-.15-.22Z"/>
      <path class="cls-1" d="M2.2,47.98c0-.07,0-.11,.03-.13-.02,0-.04,.02-.06,.03,0,.04,.01,.08,.03,.1Z"/>
      <path class="cls-1" d="M27.63,41.13l.31-.03c-.09,0-.2,0-.31,.03Z"/>
      <path class="cls-1" d="M52.8,35.37l.06-.05s-.05,.01-.06,.05Z"/>
      <path class="cls-1" d="M28.83,40.85c.08,.08,.15,.13,.22,.15,0-.02,.02-.05,.02-.08l-.23-.07Z"/>
      <path class="cls-1" d="M66.64,32.27s0,0,0,0c0,0,0,0,0,0Z"/>
      <path class="cls-1" d="M68.48,31.14c-.29,.06-.05,.38-.06,.6-.32,.18-.22-.23-.38-.38-.19,.15-.28,.52-.44,.54-.03-.06-.06-.07-.04-.15-.16,.34-.67,.18-.85,.6-.03-.03-.04-.05-.06-.08,.09,.17,.14,.35,.16,.48-.13,.04-.19,.28-.29,.06,.08-.01,.06-.11,.08-.19l-.11,.13c-.2-.31,.16-.16,.1-.41-.24,.17-.48,.53-.71,.48-.12-.32,.45-.23,.11-.45l.34,.05c-.37-.46,.2,0-.15-.51-.44,0-.42,.28-.86,.28-.05,.21,.1,.26,.05,.47-.51,.47-.66-.72-.99-.18-.06,.25,0,.68-.36,.53v-.4c-.39,.06-.08,.59-.56,.44,.04-.16,.28-.2,.21-.23-.34-.23-.14,.26-.35,.31l-.12-.32c-.41,.15-.83,.51-1.28,.68,0-.1,.06-.23-.08-.3-.56,.31-1.28,.26-1.9,.21l-.15,.34c-.05,0-.13-.11-.08-.17-.25-.05,.03,.18-.05,.32-.12,.05-.21-.12-.15-.23-.34,.34-1,.79-1.49,.59l.06-.1c-.35-.04-.23,.67-.59,.48l.05-.06c-.73,.04-1.45,.49-2.09,.19,0,.44-.74-.02-.65,.57-.47-.19-.38-.32-.99-.37-.16,0-.14,.41-.31,.52l-.08-.3-.18,.38-.22-.33-.16,.12c.07,0,.18,.1,.19,.19-.24,.2-.72-.05-.76-.2l-.59,.41c-.01-.12,.08-.19,.15-.29-.27,.39-.14-.3-.39,.06,.06,.06,.02,.18,.03,.25-.2-.14-.56-.06-.81,.08v-.22c-.49,.06-.99,.34-1.53,.47,.22,.05,.26,.42,.11,.49l-.14-.3c-.05,.22,.19,.08,.04,.37-.21,.01-.22-.33-.13-.46l-.22,.17c-.04-.09,0-.15,0-.28-.05,.22-.5-.22-.56,.16l-.04-.09c-.54,.13-.76,.29-1.19,.42,.06,.28-.13,.26-.21,.51-.34-.01-.75-.14-1.14-.02-.24,.2-.02,.25-.11,.44-.08-.24-.46-.13-.3-.36-.46,.15-.58,.19-1.12,.54,.09,.09,.17,.11,.15,.21-.1,.07-.27-.05-.28-.17l.02-.03c-.57,.53-1.7-.36-2.1,.29l.02-.03-.48,.4c-.26,.02,.11-.22-.12-.33-.49,.56-.95,.16-1.36,.56-.55-.64-1.32,.37-1.94,.02l.07,.17c-.09,.2-.18-.06-.29-.08,.05,.13,.18,.12,.12,.23-1.06,.48-2.35,.3-3.53,.41-.43,.05-.02,.95-.65,.66l.07-.36c-.75,.59-1.72,.4-2.46,.92,.03-.09,0-.18,.09-.2-.23-.19-.65,.14-.6,.33-.13,0-.07-.16-.17-.24-.21-.1-.37,.4-.51,.19-.02-.03,.03-.09,.06-.11-.09,.14-.54,.1-.36,.34-.34-.05-.56,.26-.85,.16-.09,.34-.56-.02-.51,.42-.08-.45-.63-.22-.77,.03,.03-.15-.2-.1-.17-.3-.22,.06-.41,.19-.31,.41-.54-.43-.72,.62-1.12,0-.6,.4-1.18,.7-1.75,.95-.08-.44,.65-.2,.51-.66-.52,.32-.76,.77-1.34,.8-.16-.03,.04-.21,.07-.3-.52,.32-1.1,.22-1.54,.58,0-.04,.04-.1,.08-.14-.1,.04-.25,0-.19,.19l.08-.08c.23,.25-.25,.7-.23,.86,.03-.61-.53-.02-.44-.81-.06,.05-.12,.17-.07,.3-.11-.02-.16-.09-.09-.26-.33,.19-.15,.38-.47,.45-.02-.1,.03-.15,.04-.27-.12,.23-.24,.45-.53,.44,0-.06-.05-.13,.03-.15-.46,.14-.67,.69-1.23,.63,.05-.46-.21-.1-.32-.45l-.25,.17,.15,.15c-.24,.05-.39,.37-.63,.3l.14-.19-.43,.18,.29,.08c-.2,.25,.14,.45-.21,.43,.06-.05-.24,.05-.42-.13,0,0,0,0,0,0-.09,.14-.18,.3-.38,.25-.07-.11-.06-.41-.11-.48-.04,.33-.54,.22-.61,.58,.03-.09-.01-.28-.04-.31l-.04,.27c-.13-.05-.16-.09-.17-.24-.35,.04,.22,.43-.23,.33,.03-.03,0-.06,.06-.11-.42,0-.73,.34-1.13,.31-.2-.34,.3-.17,.1-.44-.51,.19-.99,.7-1.53,.74l.11,.02c.05,.53-.44-.16-.64,.14,.05-.05,.01-.31,.01-.24-.37,0-.69,.3-1.18,.59l.03-.15c-.24-.07-.56,.06-.8,.06-.03,.15-.17,.16-.04,.33-.87-.59-1.22,.72-1.98,.24,.07-.02,.15-.16,.09-.14l-.49,.25c.1,.21,.1,.12,.25,.27-.03,.15-.16,.29-.29,.32,.2-.21-.09-.36-.22-.46,.03,.06,.02,.15,.04,.22-.37-.33,.06,.46-.37,.28v-.12c-.13,.09-.22,.28-.38,.28-.12-.25,.12-.16,.08-.37-.21,.07-.3,.59-.55,.38,.07-.09,.2-.13,.27-.22-.28-.26-.29-.17-.45-.18h.02s-.39-.05-.39-.05l.11,.06c-.1,.74-.51,.25-.76,.78,.24-.5,0-.26-.05-.56-.11-.06-.27-.12-.25-.21-.11,.28-.33-.12-.48,.28-.03-.09-.18,.03-.2-.21-.2,.13,.09,.15,.1,.28-.26,.4-.88-.2-1.26,.36-.37,.28-.37,.62-.72,.87-.17-.12,.02-.37,.02-.37-.24-.09-.4-.03-.57,.13,.02-.09-.04-.15-.12-.24-.15,.06-.02,.37-.27,.28,.01-.11,.02-.29,.07-.42-.17,.13-.31,.35-.48,.49-.09-.15,.06-.28,.1-.4-.2,.13-.53,.29-.53,.56l.16,.06c-.08,.03-.09-.21-.05-.28,.14-.25,.29,.03,.33,.12l-.12,.09c.28,.52,.53-.22,.82-.26l-.02,.43,.21-.4c.09,.09,.18,.31,.06,.4,.25,.15,.14-.19,.37,0,.03,.03,.02,.05,0,.07l.17-.17c-.02,.09,.1,.28-.03,.25,.41,.15,.49-.44,.7-.16l-.02,.03c.45-.25-.02-.31,.26-.74l.42,.67-.02-.31c.05,0,.16,0,.17,.12,.14-.25-.06-.12,0-.34,.31,.21,.64-.29,.8,.17,.03-.25-.27-.12-.05-.34,.2,.49,.28-.16,.55,.02,0,.28-.25,.19,.03,.37,.03-.48,.45,0,.62-.14-.08-.36,.37-.24,.65-.44,0,.12,.63,.05,.95,.11v.06c-.02-.37,.29-.38,.49-.5,.04,.22,.02,.31-.07,.43l.2-.05c.02-.13,.07-.2,.19-.27v.28c.28-.08,.49-.45,.88-.35-.04-.25-.45-.63-.11-.88,.05,.13,.12,.36,.03,.44,.03-.03,.09-.14,.16-.1l-.09,.26c.18,.06,.04-.21,.17-.22,.04,.19,.13,.11,.15,.27-.03,.03-.13-.05-.16,.03,.15,0,.35,.07,.45,.2-.04-.11-.06-.26,.04-.31,.27-.08,.15,.21,.33,.27,.03-.15,.24-.05,.18-.34,.08-.02,.13,.11,.18,.18,.11-.16,.65-.19,.42-.46h-.04s.01-.02,.02-.03h0s0,0,0,0c.39-.4,1-.07,1.43-.3l.02,.1c.25-.18,.59-.21,.74-.46,.08-.02,.23,.13,.23,.25,.19-.12,.19-.24,.53-.15-.17,.22,.11,.13-.19,.17,.29,.02,.39,.16,.62-.18-.04,.27,.28,.26,.39,.16l-.23-.13c.14-.07,.27-.08,.4-.09v.34c.66,.26,.85-.91,1.43-.35,.09-.26-.34-.09-.27-.38,.27-.02,.65,.38,.73,.36,.39,.09,.21-.55,.61-.52-.07-.1-.19-.4,.06-.58,.27-.02,.43,.41,.29,.54-.06,.02-.1,0-.1-.04-.07,.06-.17,.14-.04,.24v-.12c.16,.09,.51,0,.47,.2,.17-.16,.04-.21-.12-.23,.37,.09,.52-.12,.88-.09-.07-.05-.15-.17-.1-.19,.53,.02,.17-.27,.49-.4,.23,.13,.03,.44,.34,.21,.24,.07,.12,.3,.06,.41,.26-.3,.61,0,.8,0l-.14,.13c.08-.08,.16-.1,.25-.12l-.15-.21c.11,.02,.19,0,.21,.1,.06-.17-.17-.37-.02-.62,.16,.09,.36-.22,.47,.08-.43,0,.12,.3-.21,.43,.06-.05,.14-.07,.24-.05,.02,.03,0,.07-.02,.09,.45,.18,.09-.39,.49-.48,0,.18,.17,.31,.23,.25-.16,.03-.15-.27-.03-.44,.29,.07,.25-.17,.39-.18l-.17-.03c.01-.18,.14-.19,.31-.29,.05,.13-.14,.13-.06,.18,.12-.35,.52,.21,.75-.06,.16,.09,.09,.32,.22,.37,.25-.3,.39,.16,.67-.11-.15-.21-.15-.15,.02-.43l-.49,.29,.26-.42c-.16,.04-.3,.23-.41,.21,.12-.23,.11-.17,0-.34,.3,.3,.39-.31,.7-.13l.13,.58c.44,.16,.61-.46,1.14-.43l-.18-.06c.01-.24,.3-.11,.44-.24,.03,.2,.15,.24,.25,.34-.04-.14,.37-.07,.32-.47l.28,.2c.43,0,.33-.66,.73-.68-.07,.24,.14,.33-.08,.54,.13-.03,.25-.02,.22-.15,.1,.1,.29-.34,.46-.19,.03-.1,0-.3,.15-.32,.03,.04,.02,.09,.02,.09-.02-.09,.19-.18,.02-.37,.54,.5,1.1-.31,1.56,.12,.26-.13,.59-.27,.84-.35,0,.06,.02,.1-.03,.09,.39,.09,.08-.6,.53-.5,.28,.26-.17,.22-.02,.31,.21,.62,.46-.2,.82,.1l-.06,.05c.26,.17,.44-.36,.79-.4,0,0,0,.06,.02,.1,.15-.38,.56-.59,.86-.76-.04,.27-.12,.17,0,.4,.14-.07-.14-.39,.13-.53,.13,.11,.36,.18,.46,.44l-.27,.08c.22,.31,.35-.1,.51-.07l.02,.16c.41-.15,.32-.53,.78-.61l-.07-.1c.15-.44,.26,.16,.43-.18l.17,.37c.14-.13,.48-.51,.75-.65-.1,.32-.4,.55-.57,.77,.16-.04,.54-.16,.58-.37-.06,.05-.11,.17-.19,.12,.12-.35,.35-.56,.67-.63,.12,.76,.88-.01,1.25,.51,.5-.41,1.15-.15,1.8-.35-.37-.52,.19-.06,0-.65,.14-.08,.21-.08,.23-.04l.55,.24c.15,.15-.11,.17-.07,.3,.35-.04,.2,.22,.46,.32-.1-.2,.04-.33,.25-.3l-.34-.21c.39-.43,.53,.4,.92-.03l-.1,.22c.22-.17,.9-.21,1.02-.75,.06,.06,.16,.21,.06,.28,.6-.07,1.17-.82,1.69-.63v.16c.09-.07,.11-.32,.28-.2,0,.06,0,.16,.04,.15,.05-.06,.23-.32,.39-.27l-.08,.19c.61,.05,.77-.61,1.22-.82,.1,.43,.58,.46,.82,.48v.06c.68-.11,1.04-.62,1.61-.94,.49,.37,1.33-.11,2,0-.11-.06-.06-.34,.03-.41,.16,.05,.32-.39,.4,0h-.05c.2,.36,.47,.19,.7,.15l-.09-.52c.78,.6,1.51-.65,2-.06,.11-.16,.29-.2,.41-.37l.06,.28c.42-.03,.63-.04,1.11-.22l-.05,.22c.28-.05,.16-.88,.42-.96l.18,.39c.49-.12,1.07,.12,1.46-.37,0,.06,.02,.18-.05,.22,.23-.04,.96,.06,.74-.48,.09,.37,.51-.08,.74-.31l.02,.28c.14-.4,.12-.5,.41-.67,.08,.02,.12,.2,0,.16,.28,.08,.13-.3,.46-.23l-.07,.2c.26-.04,.22-.13,.31-.36,.13-.15,.5-.05,.59,.19,0-.16,.09-.39,.25-.36,.04,.09,0,.16-.02,.19,.47,.08,.55-.47,.91-.27,.03,.09,.06,.13,.09,.15-.34,.07-.61,.12-.59,.1,.06,.25,.34,.23,.21,.63,.17-.24,.45-.74,.74-.68,.02,.02,.04,.04,.06,.08l-.02,.03c.07,.01,.12-.03,.16-.08,.09,.02,.15,.04,.24,.02,.08,.2,.34,.04,.47,.01-.08-.27,.11-.27-.11-.46,.03,.01-.02,.04-.1,.07-.02,.01-.04,.02-.05,.04,0,0,0-.02,0-.03-.09,.03-.2,.06-.33,.1,.07-.16,.16-.31,.34-.19,.03-.19,.06-.39,.08-.49,.28,.34,.68,.46,.79,.68,.38-.25,.95-.33,1.08-.91,.1-.09,.17,.11,.23,.19-.06,.07-.14,.08-.16,.16,.2-.19,.68-.22,.65-.59,.33,.09-.09,.37,.31,.21l-.03,.12c.94,.38,1.08-1.23,2.14-.7-.07-.03-.11-.04-.13-.1,1.09,.08,2.01-.8,3.13-.53,.31,.04,.28-.2,.41-.42l.13,.28,.21-.41c.36-.35,.9,.55,1.32-.05l-.12-.18c.2,0,.58-.26,.6-.03,.01-.04,.01-.22,.11-.14l.04,.15,.4-.38c.39,.02,.09,.62,.63,.53,.18-.11,.45-.58,.35-.67-.08,.01-.23-.05-.27-.2l.16-.12c-.08-.46-.05-.96-.57-1.17l-.24,.35-.15-.2,.26-.08c-.2-.17-.25,.03-.32,.18-.05-.11-.12-.18-.19-.21l-.2,.5c-.08-.17,.05-.38-.18-.43-.09,.23,.23,.36,.03,.55-.2-.17-.19-.35-.32-.13-.05-.11-.03-.19,.02-.26-.12,.18-.39,.16-.41,.42-.21-.22-.5,.19-.59-.24-.02,.11-.19,.4-.33,.45,.14-.58-.54,.1-.6-.47-.08,.51-.64,.37-.92,.71,.01-.04,.03-.12,.07-.11-.2,0-.29-.12-.43-.18,.07,.39-.21,.55-.31,.82-.32-.31,.03-.48-.12-.82,.09,.31-.33,.41-.19,.64-.23-.18-.18-.07-.35-.37,.08,.48-.15,.12-.22,.45-.31-.17-.17-.43-.42-.22-.17-.11,.04-.34,.04-.34Zm-6.56,2.44s0,0,0,0c.06-.02,.1-.04,.14-.05-.03,.01-.07,.03-.13,.05Zm-.57,.14c.07,0,.16-.02,.25-.05,.04,.09,.04,.19-.01,.2,.02-.07-.13-.09-.23-.15Zm1.66,1.61c-.08,.06-.12,.01-.15-.04,.04-.01,.09-.04,.15-.07,0-.01,0-.02,0-.04,0,.05,0,.11,0,.15Z"/>
      <path class="cls-1" d="M63.09,34.93s.02-.02,.03-.03c-.02-.02-.05-.04-.07-.05,0,.03,0,.06-.01,.09,.02,0,.03-.01,.05-.02Z"/>
      <path class="cls-1" d="M11.54,46.88h.01s-.02-.01-.03-.03c.01,.01,.01,.02,.02,.03Z"/>
      <polygon class="cls-1" points="53.4 35.08 53.42 35.15 53.45 35.08 53.4 35.08"/>
      <path class="cls-1" d="M8.19,46.69s-.03-.04-.06-.06c0,.02,.03,.04,.06,.06Z"/>
      <path class="cls-1" d="M6.83,46.95l-.21-.05c.1,.04,.16,.05,.21,.05Z"/>
      <path class="cls-1" d="M5.76,47.07c0,.05,0,.09,0,.12,0,0,0,0,0,0v-.12Z"/>
      <path class="cls-1" d="M22.19,42.78s.03-.01,.04-.02c.08-.08,.02-.04-.04,.02Z"/>
      <path class="cls-1" d="M17.43,44.6c.04-.06,.08-.12,.13-.17-.09,0-.16,.01-.13,.17Z"/>
      <path class="cls-1" d="M27.59,41.14s0,0,0,0c.01,0,.02,0,.03,0h-.03Z"/>
      <path class="cls-1" d="M17.78,44.38c-.1-.03-.17,0-.23,.05,.08,0,.17,0,.23-.05Z"/>
      <path class="cls-1" d="M1.23,48.02h-.05s0,.03,0,.05l.05-.05Z"/>
      <path class="cls-1" d="M1.18,48.07l-.05,.05s.05-.01,.05-.05Z"/>
      <path class="cls-1" d="M1.03,48.21l.1-.1s-.09,.01-.1,.1Z"/>
      <path class="cls-1" d="M2.63,47.82v-.1s0,.06,0,.1Z"/>
      <path class="cls-1" d="M3.04,47.69c-.11,0-.3-.15-.42-.06v.08c.04-.16,.37,.16,.42-.03Z"/>
      <path class="cls-1" d="M5.08,48.5h-.37c.09,.1,.2,.22,.05,.28,.52,.21-.15-.21,.32-.28Z"/>
      <path class="cls-1" d="M6.2,48.39c-.18,.09,.04,.15,.04,.21,.1-.12,.12-.16-.04-.21Z"/>
      <path class="cls-1" d="M14.04,46.51l.04,.25c.14-.07-.02-.1-.04-.25Z"/>
      <polygon class="cls-1" points="15.24 44.86 15.06 44.74 15.04 44.99 15.24 44.86"/>
      <polygon class="cls-1" points="16.55 46.42 16.49 46.47 16.71 46.32 16.55 46.42"/>
      <path class="cls-1" d="M29.7,43.17l-.12-.3c-.08,.08-.02,.43,.12,.3Z"/>
      <path class="cls-1" d="M35.31,41.5c.1,.14,.28,.2,.34,.02-.13,0-.29-.08-.34-.02Z"/>
      <polygon class="cls-1" points="52.48 37.9 52.39 38.03 52.59 37.89 52.48 37.9"/>
    </g>
  </g>
  <g>
    <path class="cls-3" d="M8.42,15.94c-.44,.39-.92,.93-1.47,1.62-.54,.69-1.06,1.43-1.55,2.22-.49,.79-.93,1.58-1.32,2.39-.39,.8-.64,1.52-.77,2.13-.13,.62-.08,1.1,.13,1.45,.21,.34,.66,.45,1.34,.3-.25,.39-.63,.63-1.12,.73-.49,.1-.98,.05-1.45-.14-.47-.19-.87-.54-1.19-1.04-.32-.5-.44-1.15-.34-1.94,.14-1.03,.51-2.15,1.12-3.38,.61-1.22,1.36-2.4,2.24-3.54,.88-1.14,1.85-2.17,2.9-3.1,1.05-.93,2.06-1.63,3.05-2.09,.77-.37,1.57-.58,2.42-.64,.85-.06,1.67-.02,2.45,.13,.79,.15,1.51,.39,2.17,.74,.66,.35,1.17,.76,1.53,1.22,.91-.54,1.73-.86,2.47-.96s1.36-.05,1.86,.13c.5,.18,.86,.48,1.08,.9,.22,.42,.28,.86,.17,1.33-.04-.27-.21-.5-.48-.68-.28-.18-.62-.26-1.04-.25-.41,0-.89,.12-1.42,.32-.53,.21-1.07,.55-1.63,1.03,.35,.93,.49,2.08,.45,3.44s-.28,2.82-.7,4.37c-.42,1.55-1.02,3.14-1.79,4.77-.78,1.63-1.71,3.16-2.81,4.61-1.34,1.78-2.74,3.24-4.21,4.38-1.46,1.13-2.82,1.89-4.06,2.27-1.24,.38-2.28,.36-3.12-.06-.84-.42-1.33-1.27-1.45-2.56-.06-.58-.03-1.24,.08-2,.11-.76,.33-1.61,.65-2.56,.25-.75,.54-1.46,.88-2.12,.34-.66,.71-1.3,1.11-1.91,.4-.61,.83-1.23,1.28-1.84,.45-.62,.91-1.24,1.36-1.88,.02-.15,.07-.45,.13-.9,.06-.45,.15-1.03,.26-1.72,.11-.7,.23-1.48,.36-2.36,.14-.87,.28-1.81,.43-2.8Zm8.51,.94c-.31,.24-.81,.66-1.49,1.27-.69,.61-1.41,1.3-2.17,2.08-.76,.77-1.47,1.55-2.14,2.34-.66,.79-1.12,1.47-1.37,2.04-.24,1.38-.39,2.78-.45,4.21-.06,1.43-.09,2.65-.07,3.66,0,.24-.13,.44-.38,.59-.25,.15-.53,.24-.83,.28-.31,.03-.59,0-.85-.07-.26-.08-.42-.23-.48-.46-.03-.12-.04-.33-.03-.63s.02-.66,.03-1.07c.01-.41,.04-.83,.08-1.27,.04-.44,.07-.84,.1-1.21-.56,.72-1.06,1.58-1.5,2.56-.44,.98-.78,1.91-.99,2.78-.22,.87-.29,1.61-.21,2.21,.07,.6,.35,.91,.84,.91,.71,0,1.5-.32,2.38-.92,.88-.61,1.77-1.42,2.66-2.45,.89-1.03,1.75-2.22,2.58-3.58,.83-1.36,1.57-2.78,2.22-4.28,.65-1.5,1.16-3.01,1.54-4.55,.38-1.53,.56-3.01,.52-4.42Zm-6.42,3.22c1.01-1.13,1.99-2.13,2.94-2.99,.95-.86,1.95-1.73,3-2.61,0-.36-.14-.76-.41-1.18-.26-.42-.68-.7-1.24-.83-.56-.13-1.27-.04-2.14,.27-.87,.31-1.92,1.01-3.14,2.09,.19-.05,.41-.05,.65,0,.24,.04,.47,.11,.67,.21,.21,.09,.37,.22,.49,.37,.12,.15,.16,.32,.12,.49-.25,.89-.45,1.69-.6,2.4-.15,.71-.26,1.3-.35,1.79Z"/>
    <path class="cls-2" d="M31.06,10.5c-.44,.39-.93,.93-1.47,1.62-.55,.69-1.06,1.43-1.56,2.22s-.93,1.58-1.32,2.39c-.39,.8-.64,1.52-.77,2.13-.13,.62-.08,1.1,.13,1.45,.21,.34,.66,.45,1.34,.3-.25,.39-.63,.63-1.12,.73-.49,.1-.98,.05-1.45-.14-.47-.19-.87-.54-1.19-1.04-.32-.5-.44-1.15-.35-1.94,.14-1.03,.51-2.15,1.12-3.38,.61-1.22,1.36-2.4,2.24-3.54,.89-1.14,1.85-2.17,2.9-3.1,1.05-.93,2.06-1.63,3.05-2.09,.77-.37,1.57-.58,2.42-.64,.85-.06,1.67-.02,2.45,.13,.79,.15,1.51,.39,2.17,.74,.66,.35,1.17,.76,1.53,1.22,.91-.54,1.73-.86,2.47-.96,.74-.1,1.36-.05,1.86,.13,.5,.18,.86,.48,1.08,.9,.22,.41,.28,.86,.17,1.33-.05-.27-.21-.5-.48-.68-.28-.18-.62-.26-1.04-.25-.42,0-.89,.12-1.42,.32-.53,.21-1.07,.55-1.63,1.03,.35,.93,.49,2.08,.45,3.44-.05,1.36-.28,2.82-.7,4.37-.42,1.55-1.02,3.14-1.79,4.77-.78,1.63-1.71,3.17-2.81,4.61-1.34,1.78-2.74,3.24-4.21,4.38-1.47,1.13-2.82,1.89-4.06,2.27-1.24,.38-2.28,.36-3.12-.06-.84-.42-1.33-1.27-1.45-2.56-.06-.58-.03-1.24,.08-2,.11-.76,.33-1.61,.65-2.56,.25-.75,.54-1.46,.88-2.12,.34-.66,.71-1.3,1.11-1.91,.4-.61,.83-1.23,1.28-1.84,.45-.62,.91-1.24,1.36-1.88,.03-.15,.07-.45,.13-.9,.06-.45,.15-1.03,.26-1.72,.11-.7,.23-1.48,.36-2.36,.14-.87,.28-1.81,.43-2.8Zm8.51,.94c-.31,.24-.81,.66-1.49,1.27-.69,.61-1.41,1.3-2.17,2.08-.76,.77-1.47,1.55-2.13,2.34-.66,.79-1.12,1.47-1.37,2.04-.24,1.38-.39,2.78-.45,4.21-.06,1.43-.09,2.65-.07,3.66,0,.24-.13,.44-.38,.59-.25,.15-.53,.24-.83,.28-.31,.03-.59,0-.85-.07-.26-.08-.42-.23-.48-.46-.03-.12-.04-.33-.03-.63,0-.31,.02-.66,.03-1.07,.01-.41,.04-.83,.08-1.27,.04-.44,.07-.84,.1-1.21-.56,.72-1.06,1.58-1.5,2.56s-.78,1.91-.99,2.78c-.22,.87-.29,1.61-.21,2.21,.07,.6,.35,.91,.84,.91,.71,0,1.5-.32,2.38-.92,.88-.61,1.76-1.42,2.66-2.45,.89-1.03,1.75-2.22,2.58-3.58,.83-1.36,1.57-2.78,2.22-4.28,.65-1.5,1.16-3.01,1.54-4.55,.38-1.53,.56-3.01,.52-4.42Zm-6.42,3.22c1.01-1.14,1.99-2.13,2.94-2.99,.95-.86,1.95-1.73,3-2.61,0-.36-.14-.76-.41-1.18-.26-.42-.68-.7-1.24-.83-.56-.13-1.27-.04-2.14,.27s-1.92,1.01-3.14,2.09c.19-.05,.41-.05,.65,0,.24,.04,.47,.11,.67,.21,.2,.09,.37,.22,.48,.37,.12,.15,.16,.32,.12,.49-.25,.89-.45,1.69-.6,2.4-.15,.71-.26,1.3-.35,1.79Z"/>
    <path class="cls-3" d="M53.71,5.07c-.44,.39-.93,.93-1.47,1.62-.55,.69-1.06,1.43-1.55,2.22-.49,.79-.93,1.58-1.32,2.39-.39,.8-.64,1.52-.77,2.13-.13,.62-.08,1.1,.13,1.45,.21,.34,.66,.45,1.34,.3-.25,.39-.63,.63-1.12,.73-.49,.1-.98,.05-1.45-.14-.47-.19-.87-.54-1.19-1.04-.32-.5-.44-1.15-.35-1.94,.14-1.03,.51-2.15,1.12-3.38,.61-1.22,1.36-2.4,2.24-3.54,.88-1.14,1.85-2.17,2.9-3.1,1.05-.93,2.06-1.63,3.05-2.09,.77-.37,1.57-.58,2.42-.64,.85-.06,1.67-.02,2.45,.13,.79,.15,1.51,.39,2.17,.74,.66,.35,1.17,.76,1.53,1.22,.91-.54,1.73-.86,2.47-.96s1.36-.05,1.86,.13c.5,.18,.86,.48,1.08,.9,.22,.41,.28,.86,.17,1.33-.05-.27-.21-.5-.48-.68-.28-.18-.62-.26-1.04-.25-.42,0-.89,.12-1.42,.32-.53,.21-1.07,.55-1.63,1.03,.35,.93,.49,2.08,.45,3.44-.05,1.36-.28,2.82-.7,4.37s-1.02,3.14-1.79,4.77c-.78,1.63-1.71,3.17-2.81,4.61-1.34,1.79-2.74,3.24-4.21,4.38-1.47,1.13-2.82,1.89-4.06,2.27-1.24,.38-2.28,.36-3.12-.06-.84-.42-1.33-1.27-1.45-2.56-.06-.58-.03-1.24,.08-2,.11-.76,.33-1.61,.65-2.56,.25-.75,.54-1.46,.88-2.12,.34-.66,.71-1.3,1.11-1.91,.4-.61,.83-1.23,1.28-1.84,.45-.62,.91-1.24,1.36-1.88,.03-.15,.07-.45,.13-.9,.06-.45,.15-1.03,.26-1.72,.11-.7,.23-1.48,.36-2.36,.14-.87,.28-1.81,.43-2.8Zm8.51,.94c-.31,.24-.81,.66-1.49,1.27-.69,.61-1.41,1.3-2.17,2.08-.76,.77-1.47,1.55-2.13,2.34-.67,.79-1.12,1.47-1.37,2.04-.24,1.38-.39,2.78-.45,4.21-.06,1.43-.09,2.65-.07,3.66,0,.24-.13,.44-.38,.59-.25,.15-.53,.24-.83,.28-.31,.03-.59,0-.85-.07-.26-.08-.42-.23-.48-.46-.03-.12-.04-.33-.03-.63s.02-.66,.03-1.07c.01-.41,.04-.83,.08-1.27,.04-.44,.07-.84,.1-1.21-.56,.72-1.06,1.58-1.5,2.56-.45,.98-.78,1.91-.99,2.78-.22,.87-.29,1.61-.21,2.21,.07,.6,.35,.91,.84,.91,.71,0,1.5-.32,2.38-.92,.88-.61,1.76-1.42,2.66-2.45,.89-1.03,1.75-2.22,2.58-3.58,.83-1.36,1.57-2.78,2.22-4.28,.65-1.5,1.16-3.01,1.54-4.55,.38-1.53,.56-3.01,.52-4.42Zm-6.42,3.22c1.01-1.14,1.99-2.13,2.94-2.99,.95-.86,1.95-1.73,3-2.61,0-.36-.14-.76-.41-1.18-.26-.42-.68-.7-1.24-.83-.56-.13-1.27-.04-2.14,.27-.87,.31-1.92,1.01-3.14,2.09,.19-.05,.41-.05,.65,0,.24,.04,.47,.11,.67,.2,.21,.09,.37,.22,.48,.37,.12,.15,.16,.32,.12,.49-.25,.89-.45,1.69-.6,2.4-.15,.71-.26,1.3-.35,1.79Z"/>
  </g>
</svg>